<svg xmlns="http://www.w3.org/2000/svg" version="1.1" xmlns:xlink="http://www.w3.org/1999/xlink" xmlns:svgjs="http://svgjs.com/svgjs" width="1440" height="560" preserveAspectRatio="none" viewBox="0 0 1440 560"><g mask="url(&quot;#SvgjsMask1014&quot;)" fill="none"><path d="M-90.69 411.72L-90.69 411.72" stroke="rgba(255, 255, 255, 1)" stroke-width="1.5"></path><path d="M-90.69 411.72L-48.3 493.3" stroke="rgba(255, 255, 255, 1)" stroke-width="1.5"></path><path d="M-90.69 411.72L37.7 496.32" stroke="rgba(255, 255, 255, 1)" stroke-width="1.5"></path><path d="M-48.3 493.3L-48.3 493.3" stroke="rgba(255, 255, 255, 1)" stroke-width="1.5"></path><path d="M-48.3 493.3L37.7 496.32" stroke="rgba(255, 255, 255, 1)" stroke-width="1.5"></path><path d="M-48.3 493.3L64.23 655.58" stroke="rgba(255, 255, 255, 1)" stroke-width="1.5"></path><path d="M-77.88 701.87L-77.88 701.87" stroke="rgba(255, 255, 255, 1)" stroke-width="1.5"></path><path d="M-77.88 701.87L64.23 655.58" stroke="rgba(255, 255, 255, 1)" stroke-width="1.5"></path><path d="M-77.88 701.87L-48.3 493.3" stroke="rgba(255, 255, 255, 1)" stroke-width="1.5"></path><path d="M-77.88 701.87L37.7 496.32" stroke="rgba(255, 255, 255, 1)" stroke-width="1.5"></path><path d="M-77.88 701.87L191.97 701.35" stroke="rgba(255, 255, 255, 1)" stroke-width="1.5"></path><path d="M-77.88 701.87L-90.69 411.72" stroke="rgba(255, 255, 255, 1)" stroke-width="1.5"></path><path d="M37.7 496.32L37.7 496.32" stroke="rgba(255, 255, 255, 1)" stroke-width="1.5"></path><path d="M37.7 496.32L64.23 655.58" stroke="rgba(255, 255, 255, 1)" stroke-width="1.5"></path><path d="M64.23 655.58L64.23 655.58" stroke="rgba(255, 255, 255, 1)" stroke-width="1.5"></path><path d="M64.23 655.58L191.97 701.35" stroke="rgba(255, 255, 255, 1)" stroke-width="1.5"></path><path d="M239.59 540L239.59 540" stroke="rgba(255, 255, 255, 1)" stroke-width="1.5"></path><path d="M239.59 540L367 513.71" stroke="rgba(255, 255, 255, 1)" stroke-width="1.5"></path><path d="M239.59 540L342.5 639.2" stroke="rgba(255, 255, 255, 1)" stroke-width="1.5"></path><path d="M239.59 540L191.97 701.35" stroke="rgba(255, 255, 255, 1)" stroke-width="1.5"></path><path d="M191.97 701.35L191.97 701.35" stroke="rgba(255, 255, 255, 1)" stroke-width="1.5"></path><path d="M191.97 701.35L342.5 639.2" stroke="rgba(255, 255, 255, 1)" stroke-width="1.5"></path><path d="M404.39 352.41L404.39 352.41" stroke="rgba(255, 255, 255, 1)" stroke-width="1.5"></path><path d="M404.39 352.41L538.53 410.1" stroke="rgba(255, 255, 255, 1)" stroke-width="1.5"></path><path d="M404.39 352.41L367 513.71" stroke="rgba(255, 255, 255, 1)" stroke-width="1.5"></path><path d="M404.39 352.41L239.59 540" stroke="rgba(255, 255, 255, 1)" stroke-width="1.5"></path><path d="M367 513.71L367 513.71" stroke="rgba(255, 255, 255, 1)" stroke-width="1.5"></path><path d="M367 513.71L342.5 639.2" stroke="rgba(255, 255, 255, 1)" stroke-width="1.5"></path><path d="M367 513.71L538.53 410.1" stroke="rgba(255, 255, 255, 1)" stroke-width="1.5"></path><path d="M367 513.71L561.57 657.82" stroke="rgba(255, 255, 255, 1)" stroke-width="1.5"></path><path d="M367 513.71L191.97 701.35" stroke="rgba(255, 255, 255, 1)" stroke-width="1.5"></path><path d="M342.5 639.2L342.5 639.2" stroke="rgba(255, 255, 255, 1)" stroke-width="1.5"></path><path d="M538.53 410.1L538.53 410.1" stroke="rgba(255, 255, 255, 1)" stroke-width="1.5"></path><path d="M538.53 410.1L676.39 339.92" stroke="rgba(255, 255, 255, 1)" stroke-width="1.5"></path><path d="M561.57 657.82L561.57 657.82" stroke="rgba(255, 255, 255, 1)" stroke-width="1.5"></path><path d="M561.57 657.82L660.29 709.02" stroke="rgba(255, 255, 255, 1)" stroke-width="1.5"></path><path d="M561.57 657.82L685.69 501.99" stroke="rgba(255, 255, 255, 1)" stroke-width="1.5"></path><path d="M561.57 657.82L342.5 639.2" stroke="rgba(255, 255, 255, 1)" stroke-width="1.5"></path><path d="M669.46 228.38L669.46 228.38" stroke="rgba(255, 255, 255, 1)" stroke-width="1.5"></path><path d="M669.46 228.38L676.39 339.92" stroke="rgba(255, 255, 255, 1)" stroke-width="1.5"></path><path d="M669.46 228.38L846.1 202.94" stroke="rgba(255, 255, 255, 1)" stroke-width="1.5"></path><path d="M669.46 228.38L538.53 410.1" stroke="rgba(255, 255, 255, 1)" stroke-width="1.5"></path><path d="M669.46 228.38L858.97 399.25" stroke="rgba(255, 255, 255, 1)" stroke-width="1.5"></path><path d="M676.39 339.92L676.39 339.92" stroke="rgba(255, 255, 255, 1)" stroke-width="1.5"></path><path d="M685.69 501.99L685.69 501.99" stroke="rgba(255, 255, 255, 1)" stroke-width="1.5"></path><path d="M685.69 501.99L843.04 511.64" stroke="rgba(255, 255, 255, 1)" stroke-width="1.5"></path><path d="M660.29 709.02L660.29 709.02" stroke="rgba(255, 255, 255, 1)" stroke-width="1.5"></path><path d="M660.29 709.02L790.06 694.22" stroke="rgba(255, 255, 255, 1)" stroke-width="1.5"></path><path d="M660.29 709.02L685.69 501.99" stroke="rgba(255, 255, 255, 1)" stroke-width="1.5"></path><path d="M846.1 202.94L846.1 202.94" stroke="rgba(255, 255, 255, 1)" stroke-width="1.5"></path><path d="M846.1 202.94L993.91 257.68" stroke="rgba(255, 255, 255, 1)" stroke-width="1.5"></path><path d="M846.1 202.94L957.49 48.42" stroke="rgba(255, 255, 255, 1)" stroke-width="1.5"></path><path d="M858.97 399.25L858.97 399.25" stroke="rgba(255, 255, 255, 1)" stroke-width="1.5"></path><path d="M858.97 399.25L843.04 511.64" stroke="rgba(255, 255, 255, 1)" stroke-width="1.5"></path><path d="M858.97 399.25L978.49 409.01" stroke="rgba(255, 255, 255, 1)" stroke-width="1.5"></path><path d="M858.97 399.25L977.4 528.61" stroke="rgba(255, 255, 255, 1)" stroke-width="1.5"></path><path d="M843.04 511.64L843.04 511.64" stroke="rgba(255, 255, 255, 1)" stroke-width="1.5"></path><path d="M790.06 694.22L790.06 694.22" stroke="rgba(255, 255, 255, 1)" stroke-width="1.5"></path><path d="M790.06 694.22L843.04 511.64" stroke="rgba(255, 255, 255, 1)" stroke-width="1.5"></path><path d="M790.06 694.22L685.69 501.99" stroke="rgba(255, 255, 255, 1)" stroke-width="1.5"></path><path d="M790.06 694.22L561.57 657.82" stroke="rgba(255, 255, 255, 1)" stroke-width="1.5"></path><path d="M790.06 694.22L977.4 528.61" stroke="rgba(255, 255, 255, 1)" stroke-width="1.5"></path><path d="M790.06 694.22L858.97 399.25" stroke="rgba(255, 255, 255, 1)" stroke-width="1.5"></path><path d="M938.07 -92.48L938.07 -92.48" stroke="rgba(255, 255, 255, 1)" stroke-width="1.5"></path><path d="M938.07 -92.48L957.49 48.42" stroke="rgba(255, 255, 255, 1)" stroke-width="1.5"></path><path d="M938.07 -92.48L1091.74 -88.83" stroke="rgba(255, 255, 255, 1)" stroke-width="1.5"></path><path d="M938.07 -92.48L1135.68 62.95" stroke="rgba(255, 255, 255, 1)" stroke-width="1.5"></path><path d="M938.07 -92.48L846.1 202.94" stroke="rgba(255, 255, 255, 1)" stroke-width="1.5"></path><path d="M938.07 -92.48L993.91 257.68" stroke="rgba(255, 255, 255, 1)" stroke-width="1.5"></path><path d="M938.07 -92.48L1158.3 241.11" stroke="rgba(255, 255, 255, 1)" stroke-width="1.5"></path><path d="M957.49 48.42L957.49 48.42" stroke="rgba(255, 255, 255, 1)" stroke-width="1.5"></path><path d="M957.49 48.42L1135.68 62.95" stroke="rgba(255, 255, 255, 1)" stroke-width="1.5"></path><path d="M993.91 257.68L993.91 257.68" stroke="rgba(255, 255, 255, 1)" stroke-width="1.5"></path><path d="M993.91 257.68L978.49 409.01" stroke="rgba(255, 255, 255, 1)" stroke-width="1.5"></path><path d="M993.91 257.68L1089.7 383.17" stroke="rgba(255, 255, 255, 1)" stroke-width="1.5"></path><path d="M978.49 409.01L978.49 409.01" stroke="rgba(255, 255, 255, 1)" stroke-width="1.5"></path><path d="M978.49 409.01L1089.7 383.17" stroke="rgba(255, 255, 255, 1)" stroke-width="1.5"></path><path d="M978.49 409.01L977.4 528.61" stroke="rgba(255, 255, 255, 1)" stroke-width="1.5"></path><path d="M978.49 409.01L843.04 511.64" stroke="rgba(255, 255, 255, 1)" stroke-width="1.5"></path><path d="M978.49 409.01L1103.11 558.12" stroke="rgba(255, 255, 255, 1)" stroke-width="1.5"></path><path d="M977.4 528.61L977.4 528.61" stroke="rgba(255, 255, 255, 1)" stroke-width="1.5"></path><path d="M1091.74 -88.83L1091.74 -88.83" stroke="rgba(255, 255, 255, 1)" stroke-width="1.5"></path><path d="M1091.74 -88.83L1135.68 62.95" stroke="rgba(255, 255, 255, 1)" stroke-width="1.5"></path><path d="M1091.74 -88.83L957.49 48.42" stroke="rgba(255, 255, 255, 1)" stroke-width="1.5"></path><path d="M1135.68 62.95L1135.68 62.95" stroke="rgba(255, 255, 255, 1)" stroke-width="1.5"></path><path d="M1135.68 62.95L1158.3 241.11" stroke="rgba(255, 255, 255, 1)" stroke-width="1.5"></path><path d="M1135.68 62.95L1273.64 243.71" stroke="rgba(255, 255, 255, 1)" stroke-width="1.5"></path><path d="M1158.3 241.11L1158.3 241.11" stroke="rgba(255, 255, 255, 1)" stroke-width="1.5"></path><path d="M1158.3 241.11L1273.64 243.71" stroke="rgba(255, 255, 255, 1)" stroke-width="1.5"></path><path d="M1158.3 241.11L1089.7 383.17" stroke="rgba(255, 255, 255, 1)" stroke-width="1.5"></path><path d="M1089.7 383.17L1089.7 383.17" stroke="rgba(255, 255, 255, 1)" stroke-width="1.5"></path><path d="M1103.11 558.12L1103.11 558.12" stroke="rgba(255, 255, 255, 1)" stroke-width="1.5"></path><path d="M1103.11 558.12L1107.88 652.68" stroke="rgba(255, 255, 255, 1)" stroke-width="1.5"></path><path d="M1103.11 558.12L977.4 528.61" stroke="rgba(255, 255, 255, 1)" stroke-width="1.5"></path><path d="M1103.11 558.12L1089.7 383.17" stroke="rgba(255, 255, 255, 1)" stroke-width="1.5"></path><path d="M1103.11 558.12L1299.03 560.01" stroke="rgba(255, 255, 255, 1)" stroke-width="1.5"></path><path d="M1103.11 558.12L1249.67 402.61" stroke="rgba(255, 255, 255, 1)" stroke-width="1.5"></path><path d="M1107.88 652.68L1107.88 652.68" stroke="rgba(255, 255, 255, 1)" stroke-width="1.5"></path><path d="M1107.88 652.68L977.4 528.61" stroke="rgba(255, 255, 255, 1)" stroke-width="1.5"></path><path d="M1107.88 652.68L1293.82 680.47" stroke="rgba(255, 255, 255, 1)" stroke-width="1.5"></path><path d="M1107.88 652.68L1299.03 560.01" stroke="rgba(255, 255, 255, 1)" stroke-width="1.5"></path><path d="M1107.88 652.68L1089.7 383.17" stroke="rgba(255, 255, 255, 1)" stroke-width="1.5"></path><path d="M1107.88 652.68L978.49 409.01" stroke="rgba(255, 255, 255, 1)" stroke-width="1.5"></path><path d="M1273.64 243.71L1273.64 243.71" stroke="rgba(255, 255, 255, 1)" stroke-width="1.5"></path><path d="M1273.64 243.71L1249.67 402.61" stroke="rgba(255, 255, 255, 1)" stroke-width="1.5"></path><path d="M1273.64 243.71L1439.4 191.07" stroke="rgba(255, 255, 255, 1)" stroke-width="1.5"></path><path d="M1273.64 243.71L1404.82 106.07" stroke="rgba(255, 255, 255, 1)" stroke-width="1.5"></path><path d="M1273.64 243.71L1407.44 388.85" stroke="rgba(255, 255, 255, 1)" stroke-width="1.5"></path><path d="M1249.67 402.61L1249.67 402.61" stroke="rgba(255, 255, 255, 1)" stroke-width="1.5"></path><path d="M1249.67 402.61L1407.44 388.85" stroke="rgba(255, 255, 255, 1)" stroke-width="1.5"></path><path d="M1249.67 402.61L1089.7 383.17" stroke="rgba(255, 255, 255, 1)" stroke-width="1.5"></path><path d="M1249.67 402.61L1299.03 560.01" stroke="rgba(255, 255, 255, 1)" stroke-width="1.5"></path><path d="M1299.03 560.01L1299.03 560.01" stroke="rgba(255, 255, 255, 1)" stroke-width="1.5"></path><path d="M1299.03 560.01L1411.59 549.9" stroke="rgba(255, 255, 255, 1)" stroke-width="1.5"></path><path d="M1299.03 560.01L1293.82 680.47" stroke="rgba(255, 255, 255, 1)" stroke-width="1.5"></path><path d="M1299.03 560.01L1400.91 695.91" stroke="rgba(255, 255, 255, 1)" stroke-width="1.5"></path><path d="M1293.82 680.47L1293.82 680.47" stroke="rgba(255, 255, 255, 1)" stroke-width="1.5"></path><path d="M1293.82 680.47L1400.91 695.91" stroke="rgba(255, 255, 255, 1)" stroke-width="1.5"></path><path d="M1293.82 680.47L1411.59 549.9" stroke="rgba(255, 255, 255, 1)" stroke-width="1.5"></path><path d="M1293.82 680.47L1103.11 558.12" stroke="rgba(255, 255, 255, 1)" stroke-width="1.5"></path><path d="M1293.82 680.47L1558.16 704.21" stroke="rgba(255, 255, 255, 1)" stroke-width="1.5"></path><path d="M1430.06 -57.77L1430.06 -57.77" stroke="rgba(255, 255, 255, 1)" stroke-width="1.5"></path><path d="M1430.06 -57.77L1573.12 -82.84" stroke="rgba(255, 255, 255, 1)" stroke-width="1.5"></path><path d="M1430.06 -57.77L1404.82 106.07" stroke="rgba(255, 255, 255, 1)" stroke-width="1.5"></path><path d="M1430.06 -57.77L1562.64 49.71" stroke="rgba(255, 255, 255, 1)" stroke-width="1.5"></path><path d="M1430.06 -57.77L1439.4 191.07" stroke="rgba(255, 255, 255, 1)" stroke-width="1.5"></path><path d="M1430.06 -57.77L1560.96 203.05" stroke="rgba(255, 255, 255, 1)" stroke-width="1.5"></path><path d="M1404.82 106.07L1404.82 106.07" stroke="rgba(255, 255, 255, 1)" stroke-width="1.5"></path><path d="M1404.82 106.07L1439.4 191.07" stroke="rgba(255, 255, 255, 1)" stroke-width="1.5"></path><path d="M1439.4 191.07L1439.4 191.07" stroke="rgba(255, 255, 255, 1)" stroke-width="1.5"></path><path d="M1439.4 191.07L1560.96 203.05" stroke="rgba(255, 255, 255, 1)" stroke-width="1.5"></path><path d="M1439.4 191.07L1562.64 49.71" stroke="rgba(255, 255, 255, 1)" stroke-width="1.5"></path><path d="M1439.4 191.07L1407.44 388.85" stroke="rgba(255, 255, 255, 1)" stroke-width="1.5"></path><path d="M1407.44 388.85L1407.44 388.85" stroke="rgba(255, 255, 255, 1)" stroke-width="1.5"></path><path d="M1407.44 388.85L1564.18 384.36" stroke="rgba(255, 255, 255, 1)" stroke-width="1.5"></path><path d="M1407.44 388.85L1411.59 549.9" stroke="rgba(255, 255, 255, 1)" stroke-width="1.5"></path><path d="M1411.59 549.9L1411.59 549.9" stroke="rgba(255, 255, 255, 1)" stroke-width="1.5"></path><path d="M1411.59 549.9L1400.91 695.91" stroke="rgba(255, 255, 255, 1)" stroke-width="1.5"></path><path d="M1411.59 549.9L1563.62 497.78" stroke="rgba(255, 255, 255, 1)" stroke-width="1.5"></path><path d="M1400.91 695.91L1400.91 695.91" stroke="rgba(255, 255, 255, 1)" stroke-width="1.5"></path><path d="M1573.12 -82.84L1573.12 -82.84" stroke="rgba(255, 255, 255, 1)" stroke-width="1.5"></path><path d="M1573.12 -82.84L1562.64 49.71" stroke="rgba(255, 255, 255, 1)" stroke-width="1.5"></path><path d="M1573.12 -82.84L1404.82 106.07" stroke="rgba(255, 255, 255, 1)" stroke-width="1.5"></path><path d="M1573.12 -82.84L1560.96 203.05" stroke="rgba(255, 255, 255, 1)" stroke-width="1.5"></path><path d="M1562.64 49.71L1562.64 49.71" stroke="rgba(255, 255, 255, 1)" stroke-width="1.5"></path><path d="M1562.64 49.71L1560.96 203.05" stroke="rgba(255, 255, 255, 1)" stroke-width="1.5"></path><path d="M1562.64 49.71L1404.82 106.07" stroke="rgba(255, 255, 255, 1)" stroke-width="1.5"></path><path d="M1562.64 49.71L1564.18 384.36" stroke="rgba(255, 255, 255, 1)" stroke-width="1.5"></path><path d="M1560.96 203.05L1560.96 203.05" stroke="rgba(255, 255, 255, 1)" stroke-width="1.5"></path><path d="M1560.96 203.05L1564.18 384.36" stroke="rgba(255, 255, 255, 1)" stroke-width="1.5"></path><path d="M1564.18 384.36L1564.18 384.36" stroke="rgba(255, 255, 255, 1)" stroke-width="1.5"></path><path d="M1564.18 384.36L1563.62 497.78" stroke="rgba(255, 255, 255, 1)" stroke-width="1.5"></path><path d="M1564.18 384.36L1411.59 549.9" stroke="rgba(255, 255, 255, 1)" stroke-width="1.5"></path><path d="M1564.18 384.36L1439.4 191.07" stroke="rgba(255, 255, 255, 1)" stroke-width="1.5"></path><path d="M1564.18 384.36L1249.67 402.61" stroke="rgba(255, 255, 255, 1)" stroke-width="1.5"></path><path d="M1563.62 497.78L1563.62 497.78" stroke="rgba(255, 255, 255, 1)" stroke-width="1.5"></path><path d="M1563.62 497.78L1407.44 388.85" stroke="rgba(255, 255, 255, 1)" stroke-width="1.5"></path><path d="M1563.62 497.78L1558.16 704.21" stroke="rgba(255, 255, 255, 1)" stroke-width="1.5"></path><path d="M1563.62 497.78L1400.91 695.91" stroke="rgba(255, 255, 255, 1)" stroke-width="1.5"></path><path d="M1558.16 704.21L1558.16 704.21" stroke="rgba(255, 255, 255, 1)" stroke-width="1.5"></path><path d="M1558.16 704.21L1400.91 695.91" stroke="rgba(255, 255, 255, 1)" stroke-width="1.5"></path><path d="M1558.16 704.21L1411.59 549.9" stroke="rgba(255, 255, 255, 1)" stroke-width="1.5"></path><circle r="5" cx="-90.69" cy="411.72" fill="rgba(255, 255, 255, 1)"></circle><circle r="5" cx="-48.3" cy="493.3" fill="rgba(255, 255, 255, 1)"></circle><circle r="5" cx="-77.88" cy="701.87" fill="rgba(255, 255, 255, 1)"></circle><circle r="5" cx="37.7" cy="496.32" fill="rgba(255, 255, 255, 1)"></circle><circle r="5" cx="64.23" cy="655.58" fill="rgba(255, 255, 255, 1)"></circle><circle r="5" cx="239.59" cy="540" fill="rgba(255, 255, 255, 1)"></circle><circle r="5" cx="191.97" cy="701.35" fill="rgba(255, 255, 255, 1)"></circle><circle r="5" cx="404.39" cy="352.41" fill="rgba(255, 255, 255, 1)"></circle><circle r="5" cx="367" cy="513.71" fill="rgba(255, 255, 255, 1)"></circle><circle r="5" cx="342.5" cy="639.2" fill="rgba(255, 255, 255, 1)"></circle><circle r="5" cx="538.53" cy="410.1" fill="rgba(255, 255, 255, 1)"></circle><circle r="5" cx="561.57" cy="657.82" fill="rgba(255, 255, 255, 1)"></circle><circle r="5" cx="669.46" cy="228.38" fill="rgba(255, 255, 255, 1)"></circle><circle r="5" cx="676.39" cy="339.92" fill="rgba(255, 255, 255, 1)"></circle><circle r="5" cx="685.69" cy="501.99" fill="rgba(255, 255, 255, 1)"></circle><circle r="5" cx="660.29" cy="709.02" fill="rgba(255, 255, 255, 1)"></circle><circle r="5" cx="846.1" cy="202.94" fill="rgba(255, 255, 255, 1)"></circle><circle r="5" cx="858.97" cy="399.25" fill="rgba(255, 255, 255, 1)"></circle><circle r="5" cx="843.04" cy="511.64" fill="rgba(255, 255, 255, 1)"></circle><circle r="5" cx="790.06" cy="694.22" fill="rgba(255, 255, 255, 1)"></circle><circle r="5" cx="938.07" cy="-92.48" fill="rgba(255, 255, 255, 1)"></circle><circle r="5" cx="957.49" cy="48.42" fill="rgba(255, 255, 255, 1)"></circle><circle r="5" cx="993.91" cy="257.68" fill="rgba(255, 255, 255, 1)"></circle><circle r="5" cx="978.49" cy="409.01" fill="rgba(255, 255, 255, 1)"></circle><circle r="5" cx="977.4" cy="528.61" fill="rgba(255, 255, 255, 1)"></circle><circle r="5" cx="1091.74" cy="-88.83" fill="rgba(255, 255, 255, 1)"></circle><circle r="5" cx="1135.68" cy="62.95" fill="rgba(255, 255, 255, 1)"></circle><circle r="5" cx="1158.3" cy="241.11" fill="rgba(255, 255, 255, 1)"></circle><circle r="5" cx="1089.7" cy="383.17" fill="rgba(255, 255, 255, 1)"></circle><circle r="5" cx="1103.11" cy="558.12" fill="rgba(255, 255, 255, 1)"></circle><circle r="5" cx="1107.88" cy="652.68" fill="rgba(255, 255, 255, 1)"></circle><circle r="5" cx="1273.64" cy="243.71" fill="rgba(255, 255, 255, 1)"></circle><circle r="5" cx="1249.67" cy="402.61" fill="rgba(255, 255, 255, 1)"></circle><circle r="5" cx="1299.03" cy="560.01" fill="rgba(255, 255, 255, 1)"></circle><circle r="5" cx="1293.82" cy="680.47" fill="rgba(255, 255, 255, 1)"></circle><circle r="5" cx="1430.06" cy="-57.77" fill="rgba(255, 255, 255, 1)"></circle><circle r="5" cx="1404.82" cy="106.07" fill="rgba(255, 255, 255, 1)"></circle><circle r="5" cx="1439.4" cy="191.07" fill="rgba(255, 255, 255, 1)"></circle><circle r="5" cx="1407.44" cy="388.85" fill="rgba(255, 255, 255, 1)"></circle><circle r="5" cx="1411.59" cy="549.9" fill="rgba(255, 255, 255, 1)"></circle><circle r="5" cx="1400.91" cy="695.91" fill="rgba(255, 255, 255, 1)"></circle><circle r="5" cx="1573.12" cy="-82.84" fill="rgba(255, 255, 255, 1)"></circle><circle r="5" cx="1562.64" cy="49.71" fill="rgba(255, 255, 255, 1)"></circle><circle r="5" cx="1560.96" cy="203.05" fill="rgba(255, 255, 255, 1)"></circle><circle r="5" cx="1564.18" cy="384.36" fill="rgba(255, 255, 255, 1)"></circle><circle r="5" cx="1563.62" cy="497.78" fill="rgba(255, 255, 255, 1)"></circle><circle r="5" cx="1558.16" cy="704.21" fill="rgba(255, 255, 255, 1)"></circle><path d="M55.74 643.55L55.74 643.55" stroke="hsl(160.10000000000002, 76.8%, 57.1%)" stroke-width="1.5"></path><path d="M55.74 643.55L-85.09 673.05" stroke="hsl(160.10000000000002, 76.8%, 57.1%)" stroke-width="1.5"></path><path d="M55.74 643.55L88.08 492.82" stroke="hsl(160.10000000000002, 76.8%, 57.1%)" stroke-width="1.5"></path><path d="M55.74 643.55L-86.1 525.07" stroke="hsl(160.10000000000002, 76.8%, 57.1%)" stroke-width="1.5"></path><path d="M827.44 348.75L827.44 348.75" stroke="hsl(160.10000000000002, 76.8%, 57.1%)" stroke-width="1.5"></path><path d="M827.44 348.75L939.64 395.92" stroke="hsl(160.10000000000002, 76.8%, 57.1%)" stroke-width="1.5"></path><path d="M827.44 348.75L859.1 515.43" stroke="hsl(160.10000000000002, 76.8%, 57.1%)" stroke-width="1.5"></path><path d="M827.44 348.75L945.18 503.59" stroke="hsl(160.10000000000002, 76.8%, 57.1%)" stroke-width="1.5"></path><path d="M827.44 348.75L638.42 493.43" stroke="hsl(160.10000000000002, 76.8%, 57.1%)" stroke-width="1.5"></path><path d="M827.44 348.75L850.87 638.17" stroke="hsl(160.10000000000002, 76.8%, 57.1%)" stroke-width="1.5"></path><path d="M1135.58 390.71L1135.58 390.71" stroke="hsl(160.10000000000002, 76.8%, 57.1%)" stroke-width="1.5"></path><path d="M1135.58 390.71L1242.37 340.13" stroke="hsl(160.10000000000002, 76.8%, 57.1%)" stroke-width="1.5"></path><path d="M1135.58 390.71L1162.31 247.15" stroke="hsl(160.10000000000002, 76.8%, 57.1%)" stroke-width="1.5"></path><path d="M1261.63 503.01L1261.63 503.01" stroke="hsl(160.10000000000002, 76.8%, 57.1%)" stroke-width="1.5"></path><path d="M1261.63 503.01L1267.13 664.72" stroke="hsl(160.10000000000002, 76.8%, 57.1%)" stroke-width="1.5"></path><path d="M1261.63 503.01L1242.37 340.13" stroke="hsl(160.10000000000002, 76.8%, 57.1%)" stroke-width="1.5"></path><path d="M1261.63 503.01L1416.18 559.21" stroke="hsl(160.10000000000002, 76.8%, 57.1%)" stroke-width="1.5"></path><path d="M1261.63 503.01L1135.58 390.71" stroke="hsl(160.10000000000002, 76.8%, 57.1%)" stroke-width="1.5"></path><path d="M1261.63 503.01L1412.93 339.02" stroke="hsl(160.10000000000002, 76.8%, 57.1%)" stroke-width="1.5"></path><path d="M1389.08 -99.32L1389.08 -99.32" stroke="hsl(160.10000000000002, 76.8%, 57.1%)" stroke-width="1.5"></path><path d="M1389.08 -99.32L1441.76 40.57" stroke="hsl(160.10000000000002, 76.8%, 57.1%)" stroke-width="1.5"></path><path d="M1389.08 -99.32L1271.22 39.33" stroke="hsl(160.10000000000002, 76.8%, 57.1%)" stroke-width="1.5"></path><path d="M1608.62 -104.92L1608.62 -104.92" stroke="hsl(160.10000000000002, 76.8%, 57.1%)" stroke-width="1.5"></path><path d="M1608.62 -104.92L1568.16 98.53" stroke="hsl(160.10000000000002, 76.8%, 57.1%)" stroke-width="1.5"></path><path d="M1608.62 -104.92L1389.08 -99.32" stroke="hsl(160.10000000000002, 76.8%, 57.1%)" stroke-width="1.5"></path><path d="M-86.1 525.07L-86.1 525.07" stroke="hsl(160.10000000000002, 76.8%, 57.1%)" stroke-width="1.5"></path><path d="M-86.1 525.07L-85.09 673.05" stroke="hsl(160.10000000000002, 76.8%, 57.1%)" stroke-width="1.5"></path><path d="M-85.09 673.05L-85.09 673.05" stroke="hsl(160.10000000000002, 76.8%, 57.1%)" stroke-width="1.5"></path><path d="M-85.09 673.05L88.08 492.82" stroke="hsl(160.10000000000002, 76.8%, 57.1%)" stroke-width="1.5"></path><path d="M-85.09 673.05L212.56 534.04" stroke="hsl(160.10000000000002, 76.8%, 57.1%)" stroke-width="1.5"></path><path d="M-85.09 673.05L377.94 545.94" stroke="hsl(160.10000000000002, 76.8%, 57.1%)" stroke-width="1.5"></path><path d="M-85.09 673.05L408.33 641.65" stroke="hsl(160.10000000000002, 76.8%, 57.1%)" stroke-width="1.5"></path><path d="M88.08 492.82L88.08 492.82" stroke="hsl(160.10000000000002, 76.8%, 57.1%)" stroke-width="1.5"></path><path d="M88.08 492.82L212.56 534.04" stroke="hsl(160.10000000000002, 76.8%, 57.1%)" stroke-width="1.5"></path><path d="M88.08 492.82L-86.1 525.07" stroke="hsl(160.10000000000002, 76.8%, 57.1%)" stroke-width="1.5"></path><path d="M212.56 534.04L212.56 534.04" stroke="hsl(160.10000000000002, 76.8%, 57.1%)" stroke-width="1.5"></path><path d="M212.56 534.04L377.94 545.94" stroke="hsl(160.10000000000002, 76.8%, 57.1%)" stroke-width="1.5"></path><path d="M212.56 534.04L55.74 643.55" stroke="hsl(160.10000000000002, 76.8%, 57.1%)" stroke-width="1.5"></path><path d="M212.56 534.04L408.33 641.65" stroke="hsl(160.10000000000002, 76.8%, 57.1%)" stroke-width="1.5"></path><path d="M212.56 534.04L-86.1 525.07" stroke="hsl(160.10000000000002, 76.8%, 57.1%)" stroke-width="1.5"></path><path d="M212.56 534.04L504.8 648.15" stroke="hsl(160.10000000000002, 76.8%, 57.1%)" stroke-width="1.5"></path><path d="M377.94 545.94L377.94 545.94" stroke="hsl(160.10000000000002, 76.8%, 57.1%)" stroke-width="1.5"></path><path d="M377.94 545.94L408.33 641.65" stroke="hsl(160.10000000000002, 76.8%, 57.1%)" stroke-width="1.5"></path><path d="M377.94 545.94L526.73 530.91" stroke="hsl(160.10000000000002, 76.8%, 57.1%)" stroke-width="1.5"></path><path d="M408.33 641.65L408.33 641.65" stroke="hsl(160.10000000000002, 76.8%, 57.1%)" stroke-width="1.5"></path><path d="M408.33 641.65L504.8 648.15" stroke="hsl(160.10000000000002, 76.8%, 57.1%)" stroke-width="1.5"></path><path d="M526.73 530.91L526.73 530.91" stroke="hsl(160.10000000000002, 76.8%, 57.1%)" stroke-width="1.5"></path><path d="M526.73 530.91L638.42 493.43" stroke="hsl(160.10000000000002, 76.8%, 57.1%)" stroke-width="1.5"></path><path d="M526.73 530.91L504.8 648.15" stroke="hsl(160.10000000000002, 76.8%, 57.1%)" stroke-width="1.5"></path><path d="M504.8 648.15L504.8 648.15" stroke="hsl(160.10000000000002, 76.8%, 57.1%)" stroke-width="1.5"></path><path d="M504.8 648.15L642.11 692.22" stroke="hsl(160.10000000000002, 76.8%, 57.1%)" stroke-width="1.5"></path><path d="M504.8 648.15L377.94 545.94" stroke="hsl(160.10000000000002, 76.8%, 57.1%)" stroke-width="1.5"></path><path d="M504.8 648.15L638.42 493.43" stroke="hsl(160.10000000000002, 76.8%, 57.1%)" stroke-width="1.5"></path><path d="M638.42 493.43L638.42 493.43" stroke="hsl(160.10000000000002, 76.8%, 57.1%)" stroke-width="1.5"></path><path d="M638.42 493.43L642.11 692.22" stroke="hsl(160.10000000000002, 76.8%, 57.1%)" stroke-width="1.5"></path><path d="M642.11 692.22L642.11 692.22" stroke="hsl(160.10000000000002, 76.8%, 57.1%)" stroke-width="1.5"></path><path d="M642.11 692.22L526.73 530.91" stroke="hsl(160.10000000000002, 76.8%, 57.1%)" stroke-width="1.5"></path><path d="M642.11 692.22L850.87 638.17" stroke="hsl(160.10000000000002, 76.8%, 57.1%)" stroke-width="1.5"></path><path d="M642.11 692.22L408.33 641.65" stroke="hsl(160.10000000000002, 76.8%, 57.1%)" stroke-width="1.5"></path><path d="M859.1 515.43L859.1 515.43" stroke="hsl(160.10000000000002, 76.8%, 57.1%)" stroke-width="1.5"></path><path d="M859.1 515.43L945.18 503.59" stroke="hsl(160.10000000000002, 76.8%, 57.1%)" stroke-width="1.5"></path><path d="M859.1 515.43L850.87 638.17" stroke="hsl(160.10000000000002, 76.8%, 57.1%)" stroke-width="1.5"></path><path d="M859.1 515.43L939.64 395.92" stroke="hsl(160.10000000000002, 76.8%, 57.1%)" stroke-width="1.5"></path><path d="M850.87 638.17L850.87 638.17" stroke="hsl(160.10000000000002, 76.8%, 57.1%)" stroke-width="1.5"></path><path d="M850.87 638.17L965.76 648.68" stroke="hsl(160.10000000000002, 76.8%, 57.1%)" stroke-width="1.5"></path><path d="M850.87 638.17L945.18 503.59" stroke="hsl(160.10000000000002, 76.8%, 57.1%)" stroke-width="1.5"></path><path d="M850.87 638.17L1095.73 662.95" stroke="hsl(160.10000000000002, 76.8%, 57.1%)" stroke-width="1.5"></path><path d="M939.64 395.92L939.64 395.92" stroke="hsl(160.10000000000002, 76.8%, 57.1%)" stroke-width="1.5"></path><path d="M939.64 395.92L945.18 503.59" stroke="hsl(160.10000000000002, 76.8%, 57.1%)" stroke-width="1.5"></path><path d="M945.18 503.59L945.18 503.59" stroke="hsl(160.10000000000002, 76.8%, 57.1%)" stroke-width="1.5"></path><path d="M945.18 503.59L965.76 648.68" stroke="hsl(160.10000000000002, 76.8%, 57.1%)" stroke-width="1.5"></path><path d="M945.18 503.59L1095.73 662.95" stroke="hsl(160.10000000000002, 76.8%, 57.1%)" stroke-width="1.5"></path><path d="M965.76 648.68L965.76 648.68" stroke="hsl(160.10000000000002, 76.8%, 57.1%)" stroke-width="1.5"></path><path d="M965.76 648.68L1095.73 662.95" stroke="hsl(160.10000000000002, 76.8%, 57.1%)" stroke-width="1.5"></path><path d="M965.76 648.68L859.1 515.43" stroke="hsl(160.10000000000002, 76.8%, 57.1%)" stroke-width="1.5"></path><path d="M965.76 648.68L939.64 395.92" stroke="hsl(160.10000000000002, 76.8%, 57.1%)" stroke-width="1.5"></path><path d="M1160.8 73.03L1160.8 73.03" stroke="hsl(160.10000000000002, 76.8%, 57.1%)" stroke-width="1.5"></path><path d="M1160.8 73.03L1271.22 39.33" stroke="hsl(160.10000000000002, 76.8%, 57.1%)" stroke-width="1.5"></path><path d="M1160.8 73.03L1162.31 247.15" stroke="hsl(160.10000000000002, 76.8%, 57.1%)" stroke-width="1.5"></path><path d="M1160.8 73.03L1293.37 255.59" stroke="hsl(160.10000000000002, 76.8%, 57.1%)" stroke-width="1.5"></path><path d="M1160.8 73.03L1242.37 340.13" stroke="hsl(160.10000000000002, 76.8%, 57.1%)" stroke-width="1.5"></path><path d="M1162.31 247.15L1162.31 247.15" stroke="hsl(160.10000000000002, 76.8%, 57.1%)" stroke-width="1.5"></path><path d="M1162.31 247.15L1242.37 340.13" stroke="hsl(160.10000000000002, 76.8%, 57.1%)" stroke-width="1.5"></path><path d="M1162.31 247.15L1293.37 255.59" stroke="hsl(160.10000000000002, 76.8%, 57.1%)" stroke-width="1.5"></path><path d="M1162.31 247.15L1271.22 39.33" stroke="hsl(160.10000000000002, 76.8%, 57.1%)" stroke-width="1.5"></path><path d="M1095.73 662.95L1095.73 662.95" stroke="hsl(160.10000000000002, 76.8%, 57.1%)" stroke-width="1.5"></path><path d="M1095.73 662.95L1267.13 664.72" stroke="hsl(160.10000000000002, 76.8%, 57.1%)" stroke-width="1.5"></path><path d="M1095.73 662.95L1261.63 503.01" stroke="hsl(160.10000000000002, 76.8%, 57.1%)" stroke-width="1.5"></path><path d="M1095.73 662.95L1135.58 390.71" stroke="hsl(160.10000000000002, 76.8%, 57.1%)" stroke-width="1.5"></path><path d="M1271.22 39.33L1271.22 39.33" stroke="hsl(160.10000000000002, 76.8%, 57.1%)" stroke-width="1.5"></path><path d="M1271.22 39.33L1441.76 40.57" stroke="hsl(160.10000000000002, 76.8%, 57.1%)" stroke-width="1.5"></path><path d="M1271.22 39.33L1293.37 255.59" stroke="hsl(160.10000000000002, 76.8%, 57.1%)" stroke-width="1.5"></path><path d="M1293.37 255.59L1293.37 255.59" stroke="hsl(160.10000000000002, 76.8%, 57.1%)" stroke-width="1.5"></path><path d="M1293.37 255.59L1242.37 340.13" stroke="hsl(160.10000000000002, 76.8%, 57.1%)" stroke-width="1.5"></path><path d="M1293.37 255.59L1412.93 339.02" stroke="hsl(160.10000000000002, 76.8%, 57.1%)" stroke-width="1.5"></path><path d="M1293.37 255.59L1135.58 390.71" stroke="hsl(160.10000000000002, 76.8%, 57.1%)" stroke-width="1.5"></path><path d="M1242.37 340.13L1242.37 340.13" stroke="hsl(160.10000000000002, 76.8%, 57.1%)" stroke-width="1.5"></path><path d="M1242.37 340.13L1412.93 339.02" stroke="hsl(160.10000000000002, 76.8%, 57.1%)" stroke-width="1.5"></path><path d="M1267.13 664.72L1267.13 664.72" stroke="hsl(160.10000000000002, 76.8%, 57.1%)" stroke-width="1.5"></path><path d="M1267.13 664.72L1416.18 559.21" stroke="hsl(160.10000000000002, 76.8%, 57.1%)" stroke-width="1.5"></path><path d="M1267.13 664.72L1451.73 643.15" stroke="hsl(160.10000000000002, 76.8%, 57.1%)" stroke-width="1.5"></path><path d="M1267.13 664.72L965.76 648.68" stroke="hsl(160.10000000000002, 76.8%, 57.1%)" stroke-width="1.5"></path><path d="M1441.76 40.57L1441.76 40.57" stroke="hsl(160.10000000000002, 76.8%, 57.1%)" stroke-width="1.5"></path><path d="M1441.76 40.57L1568.16 98.53" stroke="hsl(160.10000000000002, 76.8%, 57.1%)" stroke-width="1.5"></path><path d="M1412.93 339.02L1412.93 339.02" stroke="hsl(160.10000000000002, 76.8%, 57.1%)" stroke-width="1.5"></path><path d="M1412.93 339.02L1552.36 380.31" stroke="hsl(160.10000000000002, 76.8%, 57.1%)" stroke-width="1.5"></path><path d="M1416.18 559.21L1416.18 559.21" stroke="hsl(160.10000000000002, 76.8%, 57.1%)" stroke-width="1.5"></path><path d="M1416.18 559.21L1451.73 643.15" stroke="hsl(160.10000000000002, 76.8%, 57.1%)" stroke-width="1.5"></path><path d="M1416.18 559.21L1608.03 505.86" stroke="hsl(160.10000000000002, 76.8%, 57.1%)" stroke-width="1.5"></path><path d="M1451.73 643.15L1451.73 643.15" stroke="hsl(160.10000000000002, 76.8%, 57.1%)" stroke-width="1.5"></path><path d="M1451.73 643.15L1604 697.42" stroke="hsl(160.10000000000002, 76.8%, 57.1%)" stroke-width="1.5"></path><path d="M1451.73 643.15L1608.03 505.86" stroke="hsl(160.10000000000002, 76.8%, 57.1%)" stroke-width="1.5"></path><path d="M1451.73 643.15L1261.63 503.01" stroke="hsl(160.10000000000002, 76.8%, 57.1%)" stroke-width="1.5"></path><path d="M1568.16 98.53L1568.16 98.53" stroke="hsl(160.10000000000002, 76.8%, 57.1%)" stroke-width="1.5"></path><path d="M1568.16 98.53L1560.77 241" stroke="hsl(160.10000000000002, 76.8%, 57.1%)" stroke-width="1.5"></path><path d="M1560.77 241L1560.77 241" stroke="hsl(160.10000000000002, 76.8%, 57.1%)" stroke-width="1.5"></path><path d="M1560.77 241L1552.36 380.31" stroke="hsl(160.10000000000002, 76.8%, 57.1%)" stroke-width="1.5"></path><path d="M1560.77 241L1412.93 339.02" stroke="hsl(160.10000000000002, 76.8%, 57.1%)" stroke-width="1.5"></path><path d="M1560.77 241L1441.76 40.57" stroke="hsl(160.10000000000002, 76.8%, 57.1%)" stroke-width="1.5"></path><path d="M1560.77 241L1293.37 255.59" stroke="hsl(160.10000000000002, 76.8%, 57.1%)" stroke-width="1.5"></path><path d="M1560.77 241L1608.03 505.86" stroke="hsl(160.10000000000002, 76.8%, 57.1%)" stroke-width="1.5"></path><path d="M1552.36 380.31L1552.36 380.31" stroke="hsl(160.10000000000002, 76.8%, 57.1%)" stroke-width="1.5"></path><path d="M1552.36 380.31L1608.03 505.86" stroke="hsl(160.10000000000002, 76.8%, 57.1%)" stroke-width="1.5"></path><path d="M1552.36 380.31L1416.18 559.21" stroke="hsl(160.10000000000002, 76.8%, 57.1%)" stroke-width="1.5"></path><path d="M1552.36 380.31L1451.73 643.15" stroke="hsl(160.10000000000002, 76.8%, 57.1%)" stroke-width="1.5"></path><path d="M1608.03 505.86L1608.03 505.86" stroke="hsl(160.10000000000002, 76.8%, 57.1%)" stroke-width="1.5"></path><path d="M1608.03 505.86L1604 697.42" stroke="hsl(160.10000000000002, 76.8%, 57.1%)" stroke-width="1.5"></path><path d="M1604 697.42L1604 697.42" stroke="hsl(160.10000000000002, 76.8%, 57.1%)" stroke-width="1.5"></path><path d="M1604 697.42L1416.18 559.21" stroke="hsl(160.10000000000002, 76.8%, 57.1%)" stroke-width="1.5"></path><path d="M1604 697.42L1552.36 380.31" stroke="hsl(160.10000000000002, 76.8%, 57.1%)" stroke-width="1.5"></path><path d="M1604 697.42L1267.13 664.72" stroke="hsl(160.10000000000002, 76.8%, 57.1%)" stroke-width="1.5"></path><circle r="25" cx="55.74" cy="643.55" fill="url(#SvgjsRadialGradient1015)"></circle><circle r="25" cx="827.44" cy="348.75" fill="url(#SvgjsRadialGradient1015)"></circle><circle r="25" cx="1135.58" cy="390.71" fill="url(#SvgjsRadialGradient1015)"></circle><circle r="25" cx="1261.63" cy="503.01" fill="url(#SvgjsRadialGradient1015)"></circle><circle r="25" cx="1389.08" cy="-99.32" fill="url(#SvgjsRadialGradient1015)"></circle><circle r="25" cx="1608.62" cy="-104.92" fill="url(#SvgjsRadialGradient1015)"></circle><circle r="5" cx="-86.1" cy="525.07" fill="#8de3c6"></circle><circle r="5" cx="-85.09" cy="673.05" fill="#8de3c6"></circle><circle r="5" cx="88.08" cy="492.82" fill="#8de3c6"></circle><circle r="5" cx="212.56" cy="534.04" fill="#8de3c6"></circle><circle r="5" cx="377.94" cy="545.94" fill="#8de3c6"></circle><circle r="5" cx="408.33" cy="641.65" fill="#8de3c6"></circle><circle r="5" cx="526.73" cy="530.91" fill="#8de3c6"></circle><circle r="5" cx="504.8" cy="648.15" fill="#8de3c6"></circle><circle r="5" cx="638.42" cy="493.43" fill="#8de3c6"></circle><circle r="5" cx="642.11" cy="692.22" fill="#8de3c6"></circle><circle r="5" cx="859.1" cy="515.43" fill="#8de3c6"></circle><circle r="5" cx="850.87" cy="638.17" fill="#8de3c6"></circle><circle r="5" cx="939.64" cy="395.92" fill="#8de3c6"></circle><circle r="5" cx="945.18" cy="503.59" fill="#8de3c6"></circle><circle r="5" cx="965.76" cy="648.68" fill="#8de3c6"></circle><circle r="5" cx="1160.8" cy="73.03" fill="#8de3c6"></circle><circle r="5" cx="1162.31" cy="247.15" fill="#8de3c6"></circle><circle r="5" cx="1095.73" cy="662.95" fill="#8de3c6"></circle><circle r="5" cx="1271.22" cy="39.33" fill="#8de3c6"></circle><circle r="5" cx="1293.37" cy="255.59" fill="#8de3c6"></circle><circle r="5" cx="1242.37" cy="340.13" fill="#8de3c6"></circle><circle r="5" cx="1267.13" cy="664.72" fill="#8de3c6"></circle><circle r="5" cx="1441.76" cy="40.57" fill="#8de3c6"></circle><circle r="5" cx="1412.93" cy="339.02" fill="#8de3c6"></circle><circle r="5" cx="1416.18" cy="559.21" fill="#8de3c6"></circle><circle r="5" cx="1451.73" cy="643.15" fill="#8de3c6"></circle><circle r="5" cx="1568.16" cy="98.53" fill="#8de3c6"></circle><circle r="5" cx="1560.77" cy="241" fill="#8de3c6"></circle><circle r="5" cx="1552.36" cy="380.31" fill="#8de3c6"></circle><circle r="5" cx="1608.03" cy="505.86" fill="#8de3c6"></circle><circle r="5" cx="1604" cy="697.42" fill="#8de3c6"></circle></g><defs><mask id="SvgjsMask1014"><rect width="1440" height="560" fill="#ffffff"></rect></mask><radialGradient id="SvgjsRadialGradient1015"><stop stop-color="#ffffff" offset="0.1"></stop><stop stop-color="rgba(26, 198, 141, 1)" offset="0.2"></stop><stop stop-color="rgba(26, 198, 141, 0)" offset="1"></stop></radialGradient></defs></svg>