<svg xmlns="http://www.w3.org/2000/svg" version="1.1" xmlns:xlink="http://www.w3.org/1999/xlink" xmlns:svgjs="http://svgjs.com/svgjs" width="1440" height="560" preserveAspectRatio="none" viewBox="0 0 1440 560"><g mask="url(&quot;#SvgjsMask1005&quot;)" fill="none"><rect width="1440" height="560" x="0" y="0" fill="rgba(248, 241, 241, 1)"></rect><path d="M12.86 424.62L77.81 462.12L77.81 537.12L12.86 574.62L-52.09 537.12L-52.09 462.12zM77.81 537.12L142.77 574.62L142.77 649.62L77.81 687.12L12.86 649.62L12.86 574.62zM142.77 -25.38L207.72 12.12L207.72 87.12L142.77 124.62L77.81 87.12L77.81 12.12zM207.72 87.12L272.68 124.62L272.68 199.62L207.72 237.12L142.77 199.62L142.77 124.62zM207.72 312.12L272.68 349.62L272.68 424.62L207.72 462.12L142.77 424.62L142.77 349.62zM272.68 -25.38L337.63 12.12L337.63 87.12L272.68 124.62L207.72 87.12L207.72 12.12zM337.63 87.12L402.58 124.62L402.58 199.62L337.63 237.12L272.68 199.62L272.68 124.62zM272.68 199.62L337.63 237.12L337.63 312.12L272.68 349.62L207.72 312.12L207.72 237.12zM337.63 537.12L402.58 574.62L402.58 649.62L337.63 687.12L272.68 649.62L272.68 574.62zM467.54 87.12L532.49 124.62L532.49 199.62L467.54 237.12L402.58 199.62L402.58 124.62zM467.54 537.12L532.49 574.62L532.49 649.62L467.54 687.12L402.58 649.62L402.58 574.62zM532.49 -25.38L597.44 12.12L597.44 87.12L532.49 124.62L467.54 87.12L467.54 12.12zM532.49 199.62L597.44 237.12L597.44 312.12L532.49 349.62L467.54 312.12L467.54 237.12zM597.44 312.12L662.4 349.62L662.4 424.62L597.44 462.12L532.49 424.62L532.49 349.62zM532.49 424.62L597.44 462.12L597.44 537.12L532.49 574.62L467.54 537.12L467.54 462.12zM597.44 537.12L662.4 574.62L662.4 649.62L597.44 687.12L532.49 649.62L532.49 574.62zM727.35 87.12L792.31 124.62L792.31 199.62L727.35 237.12L662.4 199.62L662.4 124.62zM662.4 199.62L727.35 237.12L727.35 312.12L662.4 349.62L597.44 312.12L597.44 237.12zM727.35 312.12L792.31 349.62L792.31 424.62L727.35 462.12L662.4 424.62L662.4 349.62zM922.21 -25.38L987.17 12.12L987.17 87.12L922.21 124.62L857.26 87.12L857.26 12.12zM922.21 199.62L987.17 237.12L987.17 312.12L922.21 349.62L857.26 312.12L857.26 237.12zM1117.07 87.12L1182.03 124.62L1182.03 199.62L1117.07 237.12L1052.12 199.62L1052.12 124.62zM1052.12 199.62L1117.07 237.12L1117.07 312.12L1052.12 349.62L987.17 312.12L987.17 237.12zM1117.07 312.12L1182.03 349.62L1182.03 424.62L1117.07 462.12L1052.12 424.62L1052.12 349.62zM1052.12 424.62L1117.07 462.12L1117.07 537.12L1052.12 574.62L987.17 537.12L987.17 462.12zM1182.03 -25.38L1246.98 12.12L1246.98 87.12L1182.03 124.62L1117.07 87.12L1117.07 12.12zM1246.98 312.12L1311.93 349.62L1311.93 424.62L1246.98 462.12L1182.03 424.62L1182.03 349.62zM1311.93 199.62L1376.89 237.12L1376.89 312.12L1311.93 349.62L1246.98 312.12L1246.98 237.12zM1506.8 87.12L1571.75 124.62L1571.75 199.62L1506.8 237.12L1441.84 199.62L1441.84 124.62z" stroke="rgba(17, 105, 142, 1)" stroke-width="2"></path><path d="M5.36 424.62 a7.5 7.5 0 1 0 15 0 a7.5 7.5 0 1 0 -15 0zM70.31 462.12 a7.5 7.5 0 1 0 15 0 a7.5 7.5 0 1 0 -15 0zM70.31 537.12 a7.5 7.5 0 1 0 15 0 a7.5 7.5 0 1 0 -15 0zM5.36 574.62 a7.5 7.5 0 1 0 15 0 a7.5 7.5 0 1 0 -15 0zM-59.59 537.12 a7.5 7.5 0 1 0 15 0 a7.5 7.5 0 1 0 -15 0zM-59.59 462.12 a7.5 7.5 0 1 0 15 0 a7.5 7.5 0 1 0 -15 0zM135.27 574.62 a7.5 7.5 0 1 0 15 0 a7.5 7.5 0 1 0 -15 0zM135.27 649.62 a7.5 7.5 0 1 0 15 0 a7.5 7.5 0 1 0 -15 0zM70.31 687.12 a7.5 7.5 0 1 0 15 0 a7.5 7.5 0 1 0 -15 0zM5.36 649.62 a7.5 7.5 0 1 0 15 0 a7.5 7.5 0 1 0 -15 0zM135.27 -25.38 a7.5 7.5 0 1 0 15 0 a7.5 7.5 0 1 0 -15 0zM200.22 12.12 a7.5 7.5 0 1 0 15 0 a7.5 7.5 0 1 0 -15 0zM200.22 87.12 a7.5 7.5 0 1 0 15 0 a7.5 7.5 0 1 0 -15 0zM135.27 124.62 a7.5 7.5 0 1 0 15 0 a7.5 7.5 0 1 0 -15 0zM70.31 87.12 a7.5 7.5 0 1 0 15 0 a7.5 7.5 0 1 0 -15 0zM70.31 12.12 a7.5 7.5 0 1 0 15 0 a7.5 7.5 0 1 0 -15 0zM265.18 124.62 a7.5 7.5 0 1 0 15 0 a7.5 7.5 0 1 0 -15 0zM265.18 199.62 a7.5 7.5 0 1 0 15 0 a7.5 7.5 0 1 0 -15 0zM200.22 237.12 a7.5 7.5 0 1 0 15 0 a7.5 7.5 0 1 0 -15 0zM135.27 199.62 a7.5 7.5 0 1 0 15 0 a7.5 7.5 0 1 0 -15 0zM200.22 312.12 a7.5 7.5 0 1 0 15 0 a7.5 7.5 0 1 0 -15 0zM265.18 349.62 a7.5 7.5 0 1 0 15 0 a7.5 7.5 0 1 0 -15 0zM265.18 424.62 a7.5 7.5 0 1 0 15 0 a7.5 7.5 0 1 0 -15 0zM200.22 462.12 a7.5 7.5 0 1 0 15 0 a7.5 7.5 0 1 0 -15 0zM135.27 424.62 a7.5 7.5 0 1 0 15 0 a7.5 7.5 0 1 0 -15 0zM135.27 349.62 a7.5 7.5 0 1 0 15 0 a7.5 7.5 0 1 0 -15 0zM265.18 -25.38 a7.5 7.5 0 1 0 15 0 a7.5 7.5 0 1 0 -15 0zM330.13 12.12 a7.5 7.5 0 1 0 15 0 a7.5 7.5 0 1 0 -15 0zM330.13 87.12 a7.5 7.5 0 1 0 15 0 a7.5 7.5 0 1 0 -15 0zM395.08 124.62 a7.5 7.5 0 1 0 15 0 a7.5 7.5 0 1 0 -15 0zM395.08 199.62 a7.5 7.5 0 1 0 15 0 a7.5 7.5 0 1 0 -15 0zM330.13 237.12 a7.5 7.5 0 1 0 15 0 a7.5 7.5 0 1 0 -15 0zM330.13 312.12 a7.5 7.5 0 1 0 15 0 a7.5 7.5 0 1 0 -15 0zM330.13 537.12 a7.5 7.5 0 1 0 15 0 a7.5 7.5 0 1 0 -15 0zM395.08 574.62 a7.5 7.5 0 1 0 15 0 a7.5 7.5 0 1 0 -15 0zM395.08 649.62 a7.5 7.5 0 1 0 15 0 a7.5 7.5 0 1 0 -15 0zM330.13 687.12 a7.5 7.5 0 1 0 15 0 a7.5 7.5 0 1 0 -15 0zM265.18 649.62 a7.5 7.5 0 1 0 15 0 a7.5 7.5 0 1 0 -15 0zM265.18 574.62 a7.5 7.5 0 1 0 15 0 a7.5 7.5 0 1 0 -15 0zM460.04 87.12 a7.5 7.5 0 1 0 15 0 a7.5 7.5 0 1 0 -15 0zM524.99 124.62 a7.5 7.5 0 1 0 15 0 a7.5 7.5 0 1 0 -15 0zM524.99 199.62 a7.5 7.5 0 1 0 15 0 a7.5 7.5 0 1 0 -15 0zM460.04 237.12 a7.5 7.5 0 1 0 15 0 a7.5 7.5 0 1 0 -15 0zM460.04 537.12 a7.5 7.5 0 1 0 15 0 a7.5 7.5 0 1 0 -15 0zM524.99 574.62 a7.5 7.5 0 1 0 15 0 a7.5 7.5 0 1 0 -15 0zM524.99 649.62 a7.5 7.5 0 1 0 15 0 a7.5 7.5 0 1 0 -15 0zM460.04 687.12 a7.5 7.5 0 1 0 15 0 a7.5 7.5 0 1 0 -15 0zM524.99 -25.38 a7.5 7.5 0 1 0 15 0 a7.5 7.5 0 1 0 -15 0zM589.94 12.12 a7.5 7.5 0 1 0 15 0 a7.5 7.5 0 1 0 -15 0zM589.94 87.12 a7.5 7.5 0 1 0 15 0 a7.5 7.5 0 1 0 -15 0zM460.04 12.12 a7.5 7.5 0 1 0 15 0 a7.5 7.5 0 1 0 -15 0zM589.94 237.12 a7.5 7.5 0 1 0 15 0 a7.5 7.5 0 1 0 -15 0zM589.94 312.12 a7.5 7.5 0 1 0 15 0 a7.5 7.5 0 1 0 -15 0zM524.99 349.62 a7.5 7.5 0 1 0 15 0 a7.5 7.5 0 1 0 -15 0zM460.04 312.12 a7.5 7.5 0 1 0 15 0 a7.5 7.5 0 1 0 -15 0zM654.9 349.62 a7.5 7.5 0 1 0 15 0 a7.5 7.5 0 1 0 -15 0zM654.9 424.62 a7.5 7.5 0 1 0 15 0 a7.5 7.5 0 1 0 -15 0zM589.94 462.12 a7.5 7.5 0 1 0 15 0 a7.5 7.5 0 1 0 -15 0zM524.99 424.62 a7.5 7.5 0 1 0 15 0 a7.5 7.5 0 1 0 -15 0zM589.94 537.12 a7.5 7.5 0 1 0 15 0 a7.5 7.5 0 1 0 -15 0zM460.04 462.12 a7.5 7.5 0 1 0 15 0 a7.5 7.5 0 1 0 -15 0zM654.9 574.62 a7.5 7.5 0 1 0 15 0 a7.5 7.5 0 1 0 -15 0zM654.9 649.62 a7.5 7.5 0 1 0 15 0 a7.5 7.5 0 1 0 -15 0zM589.94 687.12 a7.5 7.5 0 1 0 15 0 a7.5 7.5 0 1 0 -15 0zM719.85 87.12 a7.5 7.5 0 1 0 15 0 a7.5 7.5 0 1 0 -15 0zM784.81 124.62 a7.5 7.5 0 1 0 15 0 a7.5 7.5 0 1 0 -15 0zM784.81 199.62 a7.5 7.5 0 1 0 15 0 a7.5 7.5 0 1 0 -15 0zM719.85 237.12 a7.5 7.5 0 1 0 15 0 a7.5 7.5 0 1 0 -15 0zM654.9 199.62 a7.5 7.5 0 1 0 15 0 a7.5 7.5 0 1 0 -15 0zM654.9 124.62 a7.5 7.5 0 1 0 15 0 a7.5 7.5 0 1 0 -15 0zM719.85 312.12 a7.5 7.5 0 1 0 15 0 a7.5 7.5 0 1 0 -15 0zM784.81 349.62 a7.5 7.5 0 1 0 15 0 a7.5 7.5 0 1 0 -15 0zM784.81 424.62 a7.5 7.5 0 1 0 15 0 a7.5 7.5 0 1 0 -15 0zM719.85 462.12 a7.5 7.5 0 1 0 15 0 a7.5 7.5 0 1 0 -15 0zM914.71 -25.38 a7.5 7.5 0 1 0 15 0 a7.5 7.5 0 1 0 -15 0zM979.67 12.12 a7.5 7.5 0 1 0 15 0 a7.5 7.5 0 1 0 -15 0zM979.67 87.12 a7.5 7.5 0 1 0 15 0 a7.5 7.5 0 1 0 -15 0zM914.71 124.62 a7.5 7.5 0 1 0 15 0 a7.5 7.5 0 1 0 -15 0zM849.76 87.12 a7.5 7.5 0 1 0 15 0 a7.5 7.5 0 1 0 -15 0zM849.76 12.12 a7.5 7.5 0 1 0 15 0 a7.5 7.5 0 1 0 -15 0zM914.71 199.62 a7.5 7.5 0 1 0 15 0 a7.5 7.5 0 1 0 -15 0zM979.67 237.12 a7.5 7.5 0 1 0 15 0 a7.5 7.5 0 1 0 -15 0zM979.67 312.12 a7.5 7.5 0 1 0 15 0 a7.5 7.5 0 1 0 -15 0zM914.71 349.62 a7.5 7.5 0 1 0 15 0 a7.5 7.5 0 1 0 -15 0zM849.76 312.12 a7.5 7.5 0 1 0 15 0 a7.5 7.5 0 1 0 -15 0zM849.76 237.12 a7.5 7.5 0 1 0 15 0 a7.5 7.5 0 1 0 -15 0zM1109.57 87.12 a7.5 7.5 0 1 0 15 0 a7.5 7.5 0 1 0 -15 0zM1174.53 124.62 a7.5 7.5 0 1 0 15 0 a7.5 7.5 0 1 0 -15 0zM1174.53 199.62 a7.5 7.5 0 1 0 15 0 a7.5 7.5 0 1 0 -15 0zM1109.57 237.12 a7.5 7.5 0 1 0 15 0 a7.5 7.5 0 1 0 -15 0zM1044.62 199.62 a7.5 7.5 0 1 0 15 0 a7.5 7.5 0 1 0 -15 0zM1044.62 124.62 a7.5 7.5 0 1 0 15 0 a7.5 7.5 0 1 0 -15 0zM1109.57 312.12 a7.5 7.5 0 1 0 15 0 a7.5 7.5 0 1 0 -15 0zM1044.62 349.62 a7.5 7.5 0 1 0 15 0 a7.5 7.5 0 1 0 -15 0zM1174.53 349.62 a7.5 7.5 0 1 0 15 0 a7.5 7.5 0 1 0 -15 0zM1174.53 424.62 a7.5 7.5 0 1 0 15 0 a7.5 7.5 0 1 0 -15 0zM1109.57 462.12 a7.5 7.5 0 1 0 15 0 a7.5 7.5 0 1 0 -15 0zM1044.62 424.62 a7.5 7.5 0 1 0 15 0 a7.5 7.5 0 1 0 -15 0zM1109.57 537.12 a7.5 7.5 0 1 0 15 0 a7.5 7.5 0 1 0 -15 0zM1044.62 574.62 a7.5 7.5 0 1 0 15 0 a7.5 7.5 0 1 0 -15 0zM979.67 537.12 a7.5 7.5 0 1 0 15 0 a7.5 7.5 0 1 0 -15 0zM979.67 462.12 a7.5 7.5 0 1 0 15 0 a7.5 7.5 0 1 0 -15 0zM1174.53 -25.38 a7.5 7.5 0 1 0 15 0 a7.5 7.5 0 1 0 -15 0zM1239.48 12.12 a7.5 7.5 0 1 0 15 0 a7.5 7.5 0 1 0 -15 0zM1239.48 87.12 a7.5 7.5 0 1 0 15 0 a7.5 7.5 0 1 0 -15 0zM1109.57 12.12 a7.5 7.5 0 1 0 15 0 a7.5 7.5 0 1 0 -15 0zM1239.48 312.12 a7.5 7.5 0 1 0 15 0 a7.5 7.5 0 1 0 -15 0zM1304.43 349.62 a7.5 7.5 0 1 0 15 0 a7.5 7.5 0 1 0 -15 0zM1304.43 424.62 a7.5 7.5 0 1 0 15 0 a7.5 7.5 0 1 0 -15 0zM1239.48 462.12 a7.5 7.5 0 1 0 15 0 a7.5 7.5 0 1 0 -15 0zM1304.43 199.62 a7.5 7.5 0 1 0 15 0 a7.5 7.5 0 1 0 -15 0zM1369.39 237.12 a7.5 7.5 0 1 0 15 0 a7.5 7.5 0 1 0 -15 0zM1369.39 312.12 a7.5 7.5 0 1 0 15 0 a7.5 7.5 0 1 0 -15 0zM1239.48 237.12 a7.5 7.5 0 1 0 15 0 a7.5 7.5 0 1 0 -15 0zM1499.3 87.12 a7.5 7.5 0 1 0 15 0 a7.5 7.5 0 1 0 -15 0zM1564.25 124.62 a7.5 7.5 0 1 0 15 0 a7.5 7.5 0 1 0 -15 0zM1564.25 199.62 a7.5 7.5 0 1 0 15 0 a7.5 7.5 0 1 0 -15 0zM1499.3 237.12 a7.5 7.5 0 1 0 15 0 a7.5 7.5 0 1 0 -15 0zM1434.34 199.62 a7.5 7.5 0 1 0 15 0 a7.5 7.5 0 1 0 -15 0zM1434.34 124.62 a7.5 7.5 0 1 0 15 0 a7.5 7.5 0 1 0 -15 0z" fill="rgba(17, 105, 142, 1)"></path><path d="M33.95 -31.62L77.25 -6.62L77.25 43.38L33.95 68.38L-9.35 43.38L-9.35 -6.62zM77.25 343.38L120.56 368.38L120.56 418.38L77.25 443.38L33.95 418.38L33.95 368.38zM163.86 43.38L207.16 68.38L207.16 118.38L163.86 143.38L120.56 118.38L120.56 68.38zM250.46 193.38L293.76 218.38L293.76 268.38L250.46 293.38L207.16 268.38L207.16 218.38zM380.37 118.38L423.67 143.38L423.67 193.38L380.37 218.38L337.07 193.38L337.07 143.38zM380.37 418.38L423.67 443.38L423.67 493.38L380.37 518.38L337.07 493.38L337.07 443.38zM466.98 118.38L510.28 143.38L510.28 193.38L466.98 218.38L423.67 193.38L423.67 143.38zM683.49 193.38L726.79 218.38L726.79 268.38L683.49 293.38L640.19 268.38L640.19 218.38zM856.7 493.38L900 518.38L900 568.38L856.7 593.38L813.4 568.38L813.4 518.38zM900 268.38L943.3 293.38L943.3 343.38L900 368.38L856.7 343.38L856.7 293.38zM986.61 118.38L1029.91 143.38L1029.91 193.38L986.61 218.38L943.3 193.38L943.3 143.38zM1289.72 43.38L1333.03 68.38L1333.03 118.38L1289.72 143.38L1246.42 118.38L1246.42 68.38zM1246.42 418.38L1289.72 443.38L1289.72 493.38L1246.42 518.38L1203.12 493.38L1203.12 443.38zM1376.33 193.38L1419.63 218.38L1419.63 268.38L1376.33 293.38L1333.03 268.38L1333.03 218.38zM1333.03 268.38L1376.33 293.38L1376.33 343.38L1333.03 368.38L1289.72 343.38L1289.72 293.38zM1419.63 118.38L1462.93 143.38L1462.93 193.38L1419.63 218.38L1376.33 193.38L1376.33 143.38zM1462.93 493.38L1506.24 518.38L1506.24 568.38L1462.93 593.38L1419.63 568.38L1419.63 518.38z" stroke="rgba(22, 199, 154, 1)" stroke-width="2"></path></g><defs><mask id="SvgjsMask1005"><rect width="1440" height="560" fill="#ffffff"></rect></mask></defs></svg>